<?xml version="1.0" standalone="no"?>
<!DOCTYPE svg PUBLIC "-//W3C//DTD SVG 20010904//EN"
 "http://www.w3.org/TR/2001/REC-SVG-20010904/DTD/svg10.dtd">
<svg version="1.0" xmlns="http://www.w3.org/2000/svg"
 width="700.000000pt" height="700.000000pt" viewBox="0 0 700.000000 700.000000"
 preserveAspectRatio="xMidYMid meet">
<metadata>
Created by potrace 1.11, written by Peter Selinger 2001-2013
</metadata>
<g transform="translate(0.000000,700.000000) scale(0.100000,-0.100000)"
fill="#000000" stroke="none">
<path d="M3219 6034 c-150 -14 -283 -36 -406 -68 -772 -201 -1406 -773 -1686
-1521 -28 -74 -75 -224 -82 -263 -2 -12 -6 -30 -9 -40 -9 -31 -37 -189 -51
-292 -11 -74 -13 -400 -4 -480 15 -138 20 -175 24 -190 3 -8 7 -32 9 -52 14
-110 106 -402 174 -553 188 -414 506 -787 884 -1038 322 -213 708 -355 1063
-392 33 -4 71 -9 85 -11 29 -5 371 -5 415 0 17 2 57 7 90 10 888 105 1661 702
1993 1541 65 165 123 376 138 508 4 29 8 55 10 58 18 31 25 465 10 589 -38
319 -114 579 -245 840 -285 567 -759 992 -1354 1214 -96 36 -324 98 -402 110
-255 40 -446 49 -656 30z m481 -57 c14 -3 48 -8 75 -12 379 -47 803 -227 1135
-483 101 -79 324 -298 402 -398 146 -185 291 -441 373 -659 27 -71 81 -256 90
-304 3 -19 7 -37 9 -40 2 -3 7 -24 10 -46 4 -22 9 -53 12 -70 17 -93 28 -243
28 -375 0 -107 -12 -319 -19 -329 -1 -3 -6 -31 -10 -61 -4 -30 -24 -123 -45
-205 -182 -727 -701 -1332 -1395 -1625 -228 -97 -440 -150 -712 -180 -82 -9
-426 -6 -503 5 -96 13 -228 38 -300 57 -41 11 -88 24 -105 28 -166 41 -441
170 -637 299 -362 240 -637 549 -831 937 -50 100 -141 325 -151 377 -3 12 -12
47 -20 77 -22 75 -44 186 -52 251 -3 30 -8 57 -10 61 -7 11 -18 212 -18 308 0
168 12 286 50 490 3 19 21 89 40 155 82 294 213 557 403 810 96 127 327 359
452 452 326 243 682 398 1058 459 18 3 43 8 55 10 11 2 53 7 91 10 39 3 72 8
74 10 6 5 421 -3 451 -9z"/>
<path d="M3200 5849 c-428 -49 -807 -198 -1145 -453 -199 -150 -380 -344 -528
-564 -78 -117 -197 -361 -245 -502 -45 -131 -82 -278 -98 -387 -3 -26 -8 -57
-10 -68 -11 -60 -18 -186 -17 -311 2 -246 39 -472 117 -702 236 -697 775
-1224 1481 -1450 62 -19 47 -16 185 -46 199 -44 307 -55 525 -51 204 4 216 5
365 31 141 25 326 76 415 114 11 5 54 23 95 41 121 51 189 88 340 185 471 304
813 786 958 1354 19 72 25 100 38 184 3 21 7 48 10 59 23 121 22 486 -1 608
-2 9 -7 39 -10 66 -11 75 -51 239 -84 338 -276 840 -1014 1442 -1896 1549
-119 14 -390 17 -495 5z m445 -52 c22 -3 65 -9 95 -13 64 -7 55 -6 185 -34
836 -183 1506 -867 1681 -1715 33 -161 39 -233 39 -465 -1 -230 -12 -332 -61
-525 -173 -690 -665 -1255 -1327 -1521 -96 -39 -313 -105 -392 -119 -169 -30
-303 -41 -475 -39 -505 7 -967 178 -1380 509 -59 48 -253 247 -313 321 -171
215 -297 449 -383 714 -28 85 -71 264 -79 331 -3 24 -10 71 -15 104 -9 60 -7
472 3 510 2 11 8 40 12 65 69 456 282 883 604 1213 369 379 862 616 1381 663
36 3 66 7 67 8 5 4 321 -2 358 -7z"/>
<path d="M2291 4485 l0 -255 89 0 90 0 0 83 0 84 955 0 c526 0 958 -4 961 -8
3 -5 5 -42 6 -84 l1 -75 88 0 89 0 0 255 0 255 -91 0 -90 0 1 -57 c1 -32 1
-70 1 -84 l-1 -27 -960 0 -960 0 0 84 0 84 -90 0 -90 0 1 -255z"/>
<path d="M2926 2601 c-1 -3 -1 -42 -1 -86 l1 -80 499 -3 c326 -1 501 1 505 8
3 5 6 45 5 87 l-1 78 -502 1 c-277 0 -504 -2 -506 -5z"/>
</g>
</svg>
